<svg width="65" height="53" viewBox="0 0 65 53" fill="none" xmlns="http://www.w3.org/2000/svg">
<g id="Group 8649">
<g id="Group 8648">
<path id="Vector 4001" d="M40 15L42.5 17" stroke="black"/>
<path id="Vector 4004" d="M36 32.3418L38.7487 30.7002" stroke="black"/>
<path id="Vector 4002" d="M39 19L41.5 21" stroke="black"/>
<path id="Vector 4005" d="M38 34.3418L40.7487 32.7002" stroke="black"/>
<path id="Vector 4003" d="M37 21L39.5 23" stroke="black"/>
<path id="Vector 4006" d="M39 37.3418L41.7487 35.7002" stroke="black"/>
<g id="Group 8647">
<path id="Ellipse 41" d="M30.3194 8.63522C33.668 9.43369 36.7149 11.175 39.1011 13.6494L35.0675 21.3283C34.3584 20.6445 33.3165 19.7492 32.2402 18.9309C31.5559 18.4107 30.8486 17.9147 30.1945 17.5196C29.5509 17.1309 28.9203 16.8159 28.3984 16.6915C26.5288 16.2457 24.569 16.3643 22.7668 17.0323C20.9646 17.7003 19.401 18.8877 18.2736 20.4444C17.1463 22.0011 16.5059 23.8571 16.4334 25.7778C16.3609 27.6984 16.8596 29.5974 17.8663 31.2347C18.8731 32.8719 20.3428 34.1739 22.0895 34.9758C23.8362 35.7778 25.7815 36.0438 27.6794 35.7402C28.2095 35.6554 28.8294 35.4001 29.4555 35.0755C30.0906 34.7462 30.7693 34.3258 31.426 33.8803C32.4667 33.1743 33.4722 32.3914 34.1875 31.7788L36.0859 35.5654L38.1061 39.5949C35.543 41.8743 32.3797 43.3757 28.9876 43.9184C25.4722 44.4807 21.869 43.988 18.6337 42.5025C15.3984 41.017 12.6762 38.6055 10.8114 35.5729C8.94655 32.5404 8.02289 29.0229 8.15718 25.4654C8.29146 21.9079 9.47766 18.47 11.5658 15.5867C13.6539 12.7033 16.5501 10.5039 19.8882 9.26651C23.2263 8.02917 26.8564 7.80948 30.3194 8.63522Z" fill="#525299" stroke="black"/>
<path id="Ellipse 42" d="M27.6786 35.7404L27.7325 35.7318L27.7832 35.7119C28.4725 35.441 28.8227 35.3462 29.0967 35.272C29.1918 35.2463 29.2777 35.223 29.3653 35.1958C29.6475 35.1081 29.8789 34.9941 30.2548 34.7404L32.049 38.2164L33.849 42.2663C32.6665 42.8565 32.2506 43.0547 31.7941 43.2001C31.5378 43.2817 31.2665 43.3472 30.8252 43.4533C30.3922 43.5574 29.8134 43.6966 28.9628 43.9223C25.4553 44.4784 21.8614 43.9845 18.6337 42.5025C15.3983 41.017 12.6761 38.6055 10.8113 35.5729C8.94653 32.5404 8.02287 29.0229 8.15715 25.4654C8.29144 21.9079 9.47764 18.47 11.5657 15.5867C13.6539 12.7033 16.5501 10.5039 19.8882 9.26651C23.2164 8.03286 26.8347 7.81081 30.2884 8.62785C32.4144 9.43393 32.6933 9.56377 33.3606 9.87436C33.7424 10.0521 34.2513 10.289 35.3062 10.7456L33.3001 14.5646L33.2986 14.5675L31.3301 18.2563C30.8648 17.9225 30.5511 17.7227 30.2143 17.5434C29.9671 17.4117 29.6994 17.2879 29.3479 17.1253C29.1097 17.0151 28.8331 16.8871 28.4983 16.7268L28.4502 16.7038L28.3984 16.6915C26.5288 16.2457 24.569 16.3643 22.7668 17.0323C20.9646 17.7003 19.4009 18.8877 18.2736 20.4444C17.1463 22.0011 16.5059 23.8571 16.4334 25.7778C16.3609 27.6984 16.8595 29.5974 17.8663 31.2347C18.8731 32.8719 20.3428 34.1739 22.0895 34.9758C23.8416 35.7803 25.9871 36.0083 27.6786 35.7404Z" fill="#C4C4F6" stroke="black"/>
</g>
</g>
<g id="Group 8627">
<g id="Vector">
<path d="M45 21.5V20.3333C45 19.7145 45.2459 19.121 45.6835 18.6834C46.121 18.2458 46.7145 18 47.3334 18H52C52.6189 18 53.2124 18.2458 53.65 18.6834C54.0875 19.121 54.3334 19.7145 54.3334 20.3333V21.5" fill="#C4C4F6"/>
<path d="M45 21.5V20.3333C45 19.7145 45.2459 19.121 45.6835 18.6834C46.121 18.2458 46.7145 18 47.3334 18H52C52.6189 18 53.2124 18.2458 53.65 18.6834C54.0875 19.121 54.3334 19.7145 54.3334 20.3333V21.5" stroke="black" stroke-linecap="round" stroke-linejoin="round"/>
</g>
<path id="Vector_2" d="M49.6667 15.6667C48.378 15.6667 47.3333 14.622 47.3333 13.3333C47.3333 12.0447 48.378 11 49.6667 11C50.9553 11 52 12.0447 52 13.3333C52 14.622 50.9553 15.6667 49.6667 15.6667Z" fill="#525299" stroke="black" stroke-linecap="round" stroke-linejoin="round"/>
</g>
<g id="Group 8645">
<g id="Vector_3">
<path d="M55 34.5V33.3333C55 32.7145 55.2459 32.121 55.6835 31.6834C56.121 31.2458 56.7145 31 57.3334 31H62C62.6189 31 63.2124 31.2458 63.65 31.6834C64.0875 32.121 64.3334 32.7145 64.3334 33.3333V34.5" fill="#C4C4F6"/>
<path d="M55 34.5V33.3333C55 32.7145 55.2459 32.121 55.6835 31.6834C56.121 31.2458 56.7145 31 57.3334 31H62C62.6189 31 63.2124 31.2458 63.65 31.6834C64.0875 32.121 64.3334 32.7145 64.3334 33.3333V34.5" stroke="black" stroke-linecap="round" stroke-linejoin="round"/>
</g>
<path id="Vector_4" d="M59.6667 28.6667C58.378 28.6667 57.3333 27.622 57.3333 26.3333C57.3333 25.0447 58.378 24 59.6667 24C60.9553 24 62 25.0447 62 26.3333C62 27.622 60.9553 28.6667 59.6667 28.6667Z" fill="#525299" stroke="black" stroke-linecap="round" stroke-linejoin="round"/>
</g>
<g id="Group 8646">
<g id="Vector_5">
<path d="M44 44.5V43.3333C44 42.7145 44.2459 42.121 44.6835 41.6834C45.121 41.2458 45.7145 41 46.3334 41H51C51.6189 41 52.2124 41.2458 52.65 41.6834C53.0875 42.121 53.3334 42.7145 53.3334 43.3333V44.5" fill="#C4C4F6"/>
<path d="M44 44.5V43.3333C44 42.7145 44.2459 42.121 44.6835 41.6834C45.121 41.2458 45.7145 41 46.3334 41H51C51.6189 41 52.2124 41.2458 52.65 41.6834C53.0875 42.121 53.3334 42.7145 53.3334 43.3333V44.5" stroke="black" stroke-linecap="round" stroke-linejoin="round"/>
</g>
<path id="Vector_6" d="M48.6667 38.6667C47.378 38.6667 46.3333 37.622 46.3333 36.3333C46.3333 35.0447 47.378 34 48.6667 34C49.9553 34 51 35.0447 51 36.3333C51 37.622 49.9553 38.6667 48.6667 38.6667Z" fill="#525299" stroke="black" stroke-linecap="round" stroke-linejoin="round"/>
</g>
</g>
</svg>
