<svg width="41" height="41" viewBox="0 0 41 41" fill="none" xmlns="http://www.w3.org/2000/svg">
<g id="Group 8501">
<circle id="Ellipse 7" cx="20.5" cy="20.5" r="20.5" fill="#A19D9D"/>
<g id="user">
<path id="Vector" d="M28 30V28C28 26.9391 27.5786 25.9217 26.8284 25.1716C26.0783 24.4214 25.0609 24 24 24H16C14.9391 24 13.9217 24.4214 13.1716 25.1716C12.4214 25.9217 12 26.9391 12 28V30" stroke="black" stroke-width="2" stroke-linecap="round" stroke-linejoin="round"/>
<path id="Vector_2" d="M20 20C22.2091 20 24 18.2091 24 16C24 13.7909 22.2091 12 20 12C17.7909 12 16 13.7909 16 16C16 18.2091 17.7909 20 20 20Z" stroke="black" stroke-width="2" stroke-linecap="round" stroke-linejoin="round"/>
</g>
</g>
</svg>
