<svg width="99" height="86" viewBox="0 0 99 86" fill="none" xmlns="http://www.w3.org/2000/svg">
<g id="Group 8387">
<path id="Vector" d="M41.6498 8.14821L5.15482 69.0738C4.40238 70.3768 4.00425 71.8542 4.00003 73.3589C3.99582 74.8636 4.38567 76.3432 5.13081 77.6504C5.87594 78.9577 6.95039 80.0471 8.24724 80.8101C9.54409 81.5732 11.0182 81.9835 12.5228 82H85.5128C87.0174 81.9835 88.4915 81.5732 89.7883 80.8101C91.0852 80.0471 92.1596 78.9577 92.9048 77.6504C93.6499 76.3432 94.0398 74.8636 94.0355 73.3589C94.0313 71.8542 93.6332 70.3768 92.8808 69.0738L56.3857 8.14821C55.6176 6.8819 54.5361 5.83493 53.2455 5.10833C51.9549 4.38172 50.4989 4 49.0178 4C47.5367 4 46.0807 4.38172 44.7901 5.10833C43.4995 5.83493 42.418 6.8819 41.6498 8.14821Z" fill="black" stroke="white" stroke-width="8" stroke-linecap="round" stroke-linejoin="round"/>
<path id="Vector_2" d="M49.0176 30.2947V47.5296" stroke="white" stroke-width="8" stroke-linecap="round" stroke-linejoin="round"/>
<path id="Vector_3" d="M49.0176 64.7653H49.0587" stroke="white" stroke-width="8" stroke-linecap="round" stroke-linejoin="round"/>
</g>
</svg>
